<?xml version="1.0" standalone="no"?><!DOCTYPE svg PUBLIC "-//W3C//DTD SVG 1.1//EN" "http://www.w3.org/Graphics/SVG/1.1/DTD/svg11.dtd"><svg t="1531820167113" class="icon" style="" viewBox="0 0 1024 1024" version="1.1" xmlns="http://www.w3.org/2000/svg" p-id="2449" xmlns:xlink="http://www.w3.org/1999/xlink" width="200" height="200"><defs><style type="text/css"></style></defs><path d="M752.850763 578.028574a261.0432 261.0432 0 0 0 8.727033-66.028574h99.913005c0 52.0039-11.107132 101.320591-30.634187 145.95386l-78.005851-79.925286zM361.951368 153.705412c0-84.455153 67.43616-153.554824 149.843915-153.554824 82.433348 0 149.869508 69.099671 149.869508 153.554824v330.910644l-299.713423-307.109647V153.705412z m514.178326 803.961871l-155.346296-159.159575a342.555219 342.555219 0 0 1-159.031613 67.692085V921.479529l99.913006 102.369883H361.951368l99.913005-102.369883v-55.279736C292.67255 841.221542 162.125357 692.1454 162.125357 512H262.038362c0 141.116883 112.043836 255.924706 249.756921 255.924706a243.691505 243.691505 0 0 0 137.559529-42.611464l-73.168873-74.985938a145.109308 145.109308 0 0 1-64.390656 15.22752c-82.407755 0-149.843915-69.099671-149.843915-153.554824v-81.179317L76.851245 138.708224l70.635219-72.375507 799.278449 818.959059-70.635219 72.375507z" p-id="2450"></path></svg>