<?xml version="1.0" standalone="no"?><!DOCTYPE svg PUBLIC "-//W3C//DTD SVG 1.1//EN" "http://www.w3.org/Graphics/SVG/1.1/DTD/svg11.dtd"><svg t="1531820159795" class="icon" style="" viewBox="0 0 1024 1024" version="1.1" xmlns="http://www.w3.org/2000/svg" p-id="2335" xmlns:xlink="http://www.w3.org/1999/xlink" width="200" height="200"><defs><style type="text/css"></style></defs><path d="M563.2 866.304V921.6l102.4 102.4H358.4l102.4-102.4v-55.296C287.4112 841.3184 153.6 692.1984 153.6 512h102.4c0 141.1584 114.8416 256 256 256s256-114.8416 256-256h102.4c0 180.1984-133.8112 329.3184-307.2 354.304zM512 665.6c-84.48 0-153.6-69.12-153.6-153.6V153.6c0-84.48 69.12-153.6 153.6-153.6s153.6 69.12 153.6 153.6v358.4c0 84.48-69.12 153.6-153.6 153.6z" p-id="2336"></path></svg>